<svg xmlns="http://www.w3.org/2000/svg" enable-background="new 0 0 24 24" viewBox="0 0 24 24" id="movie-library">
  <g id="library">
    <path fill="#bdbbff" d="M10.6,13.6v2.8c0,0.5,0.6,0.8,1.1,0.5l2.4-1.4c0.4-0.2,0.4-0.8,0-1l-2.4-1.4C11.2,12.8,10.6,13.1,10.6,13.6z"></path>
    <path fill="#bdbbff" d="M20,12v6c0,1.1-0.9,2-2,2H6c-1.1,0-2-0.9-2-2h12c1.1,0,2-0.9,2-2v-6C19.1,10,20,10.9,20,12z"></path>
    <path fill="#6f51f8" d="M18 9H6c-1.7 0-3 1.3-3 3v6c0 1.7 1.3 3 3 3h12c1.7 0 3-1.3 3-3v-6C21 10.3 19.7 9 18 9zM19 18c0 .6-.4 1-1 1H6c-.6 0-1-.4-1-1v-6c0-.6.4-1 1-1h12c.6 0 1 .4 1 1V18zM6 8h12c.6 0 1-.4 1-1s-.4-1-1-1H6C5.4 6 5 6.4 5 7S5.4 8 6 8zM8 5h8c.6 0 1-.4 1-1s-.4-1-1-1H8C7.4 3 7 3.4 7 4S7.4 5 8 5z"></path>
  </g>
</svg>
